<svg width="978" height="319" viewBox="0 0 978 319" fill="none" xmlns="http://www.w3.org/2000/svg">
<g clip-path="url(#clip0)">
<path d="M185.323 138.232C182.932 137.421 180.396 137.13 177.884 137.379C175.371 137.629 172.941 138.412 170.757 139.677L8.73865 233.525C8.67865 233.56 8.61894 233.595 8.55994 233.632C0.359939 238.68 -2.25815 248.026 2.04285 256.889C7.40785 267.937 26.4128 278.338 49.3358 282.771C57.6827 284.371 66.1633 285.169 74.662 285.157C92.909 285.157 115.309 281.565 140.113 269.999C159.379 261.017 177.699 241.399 189.12 217.515C201.152 192.353 203.535 166.971 195.658 147.877C194.722 145.626 193.316 143.601 191.533 141.937C189.751 140.274 187.633 139.01 185.323 138.232Z" fill="#7CE0D6"/>
<path d="M436.456 233.632C436.397 233.595 436.337 233.56 436.277 233.525L274.263 139.677C272.078 138.412 269.649 137.628 267.136 137.379C264.624 137.13 262.088 137.421 259.697 138.232C257.386 139.01 255.268 140.273 253.485 141.937C251.701 143.6 250.295 145.626 249.359 147.878C241.482 166.971 243.859 192.353 255.897 217.515C267.317 241.396 285.636 261.015 304.897 269.999C329.705 281.565 352.102 285.157 370.349 285.157C378.847 285.169 387.327 284.37 395.674 282.771C418.598 278.338 437.603 267.937 442.966 256.891C447.275 248.029 444.657 238.681 436.456 233.632Z" fill="#7CE0D6"/>
<path fill-rule="evenodd" clip-rule="evenodd" d="M156.389 7.75196C156.389 3.47092 159.86 0.000457764 164.141 0.000457764C177.541 0.000457764 190.393 5.32376 199.868 14.7991C209.343 24.2744 214.667 37.1256 214.667 50.5259C214.667 54.8069 211.196 58.2774 206.915 58.2774C202.634 58.2774 199.164 54.8069 199.164 50.5259C199.164 41.2374 195.474 32.3295 188.906 25.7614C182.338 19.1934 173.429 15.5035 164.141 15.5035C159.86 15.5035 156.389 12.033 156.389 7.75196Z" fill="#2C3437"/>
<path fill-rule="evenodd" clip-rule="evenodd" d="M281.853 15.5035C277.254 15.5035 272.699 16.4094 268.45 18.1695C264.201 19.9295 260.341 22.5092 257.089 25.7614C253.837 29.0135 251.257 32.8744 249.497 37.1235C247.737 41.3724 246.832 45.9263 246.832 50.5257C246.832 54.8067 243.361 58.2773 239.08 58.2774C234.799 58.2775 231.329 54.8071 231.329 50.5261C231.328 43.8912 232.635 37.3212 235.174 31.191C237.713 25.0609 241.435 19.491 246.126 14.7992C250.818 10.1075 256.387 6.38582 262.518 3.84663C268.647 1.30747 275.218 0.000457764 281.853 0.000457764C286.134 0.000457764 289.605 3.47092 289.605 7.75196C289.605 12.033 286.134 15.5035 281.853 15.5035Z" fill="#2C3437"/>
<path d="M298.931 271.423H131.477L207.546 315.323C212.095 317.961 217.26 319.352 222.519 319.355C227.777 319.358 232.944 317.973 237.496 315.34L313.596 271.421L298.931 271.423Z" fill="#2C3437"/>
<path d="M322.402 174.463H114.867V224.776H330.153V174.463H322.402Z" fill="#2C3437"/>
<path d="M315.218 128.9L313.338 127.815H131.739L129.85 128.906C125.309 131.535 121.537 135.308 118.909 139.849C116.281 144.39 114.889 149.54 114.871 154.787V174.463H330.157V154.79C330.138 149.547 328.75 144.4 326.129 139.859C323.509 135.318 319.748 131.54 315.218 128.9Z" fill="#FFDD0F"/>
<path d="M322.402 224.775H114.867V244.549C114.879 249.806 116.27 254.967 118.9 259.519C121.53 264.071 125.307 267.854 129.855 270.49L131.477 271.427H313.596L315.248 270.473C319.773 267.824 323.528 264.039 326.142 259.492C328.755 254.946 330.136 249.797 330.148 244.553V224.779L322.402 224.775Z" fill="#FFDD0F"/>
<path d="M237.504 84.0503C232.957 81.416 227.796 80.0282 222.541 80.0273C217.286 80.0264 212.124 81.4124 207.577 84.0451L131.735 127.815H313.339L237.504 84.0503Z" fill="#2C3437"/>
<g clip-path="url(#clip1)">
<path d="M478.25 166.348C482.177 164.818 486.195 163.019 490.488 160.95C494.78 158.88 498.89 156.721 502.908 154.291C506.926 151.862 510.853 149.343 514.506 146.643C518.251 143.944 521.538 141.155 524.552 138.096H545.557V272.16H515.419V176.155C511.401 178.765 506.835 181.194 501.903 183.354C496.88 185.513 492.04 187.402 487.383 188.932L478.25 166.348Z" fill="#2C3437"/>
<path d="M749.129 138.365C749.129 143.764 747.394 147.993 743.832 151.052C740.271 154.111 736.161 155.641 731.321 155.641C726.481 155.641 722.371 154.111 718.809 151.052C715.248 147.993 713.512 143.764 713.512 138.365C713.512 132.967 715.248 128.738 718.809 125.679C722.462 122.53 726.572 121 731.412 121C736.252 121 740.362 122.53 743.924 125.589C747.394 128.738 749.129 132.967 749.129 138.365ZM746.937 272.16H716.8V168.687H746.937V272.16Z" fill="#2C3437"/>
<path d="M805.855 272.158C799.005 259.022 792.156 243.726 785.124 226.09C778.092 208.545 771.425 189.38 765.215 168.686H796.722C798.092 173.814 799.645 179.303 801.471 185.331C803.298 191.27 805.124 197.298 807.133 203.416C809.051 209.535 810.969 215.473 812.978 221.232C814.896 226.99 816.814 232.209 818.732 236.977C820.467 232.299 822.293 226.99 824.302 221.232C826.312 215.473 828.321 209.535 830.239 203.416C832.156 197.298 834.074 191.27 835.809 185.331C837.636 179.393 839.188 173.814 840.558 168.686H871.335C865.034 189.38 858.458 208.545 851.426 226.09C844.394 243.636 837.545 259.022 830.695 272.158H805.855Z" fill="#2C3437"/>
<path d="M879.274 221.054C879.274 211.877 880.735 203.779 883.566 196.941C886.397 190.012 890.233 184.344 894.891 179.665C899.548 175.076 904.936 171.567 910.964 169.228C916.991 166.888 923.293 165.719 929.686 165.719C944.572 165.719 956.444 170.218 965.028 179.215C973.704 188.213 977.997 201.439 977.997 218.895C977.997 220.604 977.905 222.494 977.814 224.473C977.723 226.543 977.54 228.342 977.449 229.872H909.868C910.507 235.9 913.43 240.669 918.453 244.268C923.475 247.777 930.325 249.576 938.818 249.576C944.298 249.576 949.686 249.127 954.891 248.137C960.188 247.147 964.481 245.977 967.768 244.538L971.787 268.382C970.143 269.191 968.042 270.001 965.394 270.721C962.745 271.531 959.732 272.16 956.535 272.79C953.248 273.42 949.777 273.87 946.033 274.23C942.288 274.59 938.544 274.86 934.8 274.86C925.302 274.86 917.083 273.51 910.142 270.721C903.11 267.932 897.356 264.153 892.79 259.384C888.224 254.615 884.753 248.947 882.562 242.378C880.37 235.72 879.274 228.612 879.274 221.054ZM949.229 209.177C949.138 206.658 948.681 204.229 947.951 201.889C947.22 199.55 946.124 197.39 944.572 195.591C943.019 193.791 941.101 192.262 938.818 191.092C936.444 189.922 933.613 189.293 930.142 189.293C926.854 189.293 923.932 189.832 921.558 191.002C919.183 192.082 917.174 193.611 915.53 195.411C913.886 197.21 912.699 199.37 911.877 201.799C910.964 204.229 910.416 206.658 909.959 209.177H949.229Z" fill="#2C3437"/>
<path d="M660.194 138.096H691.244V272.16H660.194V215.475H609.051V272.16H578.001V138.096H609.051V189.382H660.194V138.096Z" fill="#2C3437"/>
</g>
</g>
<defs>
<clipPath id="clip0">
<rect width="978" height="319" fill="white"/>
</clipPath>
<clipPath id="clip1">
<rect width="499.75" height="153.769" fill="white" transform="translate(478.25 121)"/>
</clipPath>
</defs>
</svg>
